<svg id="Layer_1" enable-background="new 0 0 512.021 512.021" height="512" viewBox="0 0 512.021 512.021" width="512" xmlns="http://www.w3.org/2000/svg"><g><g><g><g><g><path d="m454.719 465.499h-397.417v-216.398c0-11.793 9.56-21.352 21.352-21.352h354.712c11.793 0 21.352 9.56 21.352 21.352v216.398z" fill="#6967bf"/><path d="m433.367 227.749h-40c11.792 0 21.352 9.56 21.352 21.352v216.397h40v-216.397c0-11.792-9.56-21.352-21.352-21.352z" fill="#5b59b2"/><path d="m92.769 263.385h326.484v202.114h-326.484z" fill="#ffffd3"/></g></g><g><g><g><path d="m180.038 501.258v-98.708c0-24.771.03-44.852.03-44.852h153.742v44.852 98.708z" fill="#d4d9ff"/><g><g><path d="m256.197 384.21c14.649 0 26.524-11.87 26.524-26.512v-33.43c-8.516-2.005-17.395-3.07-26.524-3.07s-18.007 1.066-26.524 3.07v33.43c.001 14.642 11.876 26.512 26.524 26.512z" fill="#ff8ccc"/></g><ellipse cx="256.197" cy="223.73" fill="#d4d9ff" rx="115.264" ry="115.215"/><path d="m256.197 108.515c-6.821 0-13.504.593-20 1.729 54.125 9.465 95.264 56.673 95.264 113.486s-41.139 104.021-95.264 113.486c6.496 1.136 13.179 1.729 20 1.729 63.658 0 115.264-51.583 115.264-115.215s-51.605-115.215-115.264-115.215z" fill="#c7cdff"/><g><g><path d="m140.751 263.448h-.008c-10.084 0-18.258-8.174-18.258-18.258v-42.919c0-10.084 8.174-18.258 18.258-18.258h.008c10.084 0 18.258 8.174 18.258 18.258v42.919c0 10.083-8.175 18.258-18.258 18.258z" fill="#ff8ccc"/></g><g><path d="m371.278 263.448h-.008c-10.084 0-18.258-8.174-18.258-18.258v-42.919c0-10.084 8.174-18.258 18.258-18.258h.008c10.084 0 18.258 8.174 18.258 18.258v42.919c0 10.083-8.174 18.258-18.258 18.258z" fill="#ff8ccc"/></g></g><g><path d="m256.197 171.528c14.649 0 26.524-11.87 26.524-26.512v-33.43c-8.516-2.005-17.395-3.07-26.524-3.07s-18.007 1.066-26.524 3.07v33.43c.001 14.642 11.876 26.512 26.524 26.512z" fill="#ffd54d"/></g></g></g><g><g><path d="m331.829 379.415h33.229v121.843h-33.229z" fill="#ff8ccc"/></g><circle cx="349.018" cy="379.415" fill="#ffd54d" r="37.521"/><path d="m349.018 341.894c-7.352 0-14.21 2.115-20 5.77 10.528 6.646 17.521 18.382 17.521 31.752s-6.993 25.106-17.521 31.752c5.79 3.655 12.648 5.77 20 5.77 20.723 0 37.521-16.799 37.521-37.521.001-20.725-16.798-37.523-37.521-37.523z" fill="#ffc919"/></g><g><g><path d="m148.838 378.362h33.229v122.896h-33.229z" fill="#ff8ccc"/></g><circle cx="164.878" cy="379.415" fill="#ffd54d" r="37.521"/><path d="m164.878 341.894c-7.352 0-14.211 2.115-20 5.77 10.528 6.646 17.521 18.382 17.521 31.752s-6.993 25.106-17.521 31.752c5.789 3.655 12.648 5.77 20 5.77 20.723 0 37.521-16.799 37.521-37.521 0-20.725-16.799-37.523-37.521-37.523z" fill="#ffc919"/></g></g><g><ellipse cx="256.241" cy="44.243" fill="#ff8ccc" rx="20.263" ry="20.254"/></g></g><path d="m483.158 504.521h-454.295c-11.793 0-21.352-9.56-21.352-21.352v-17.67h497v17.67c0 11.792-9.56 21.352-21.353 21.352z" fill="#7776d0"/><path d="m464.511 465.499v17.67c0 11.792-9.56 21.352-21.352 21.352h40c11.792 0 21.352-9.56 21.352-21.352v-17.67z" fill="#6967bf"/></g></g><g><path d="m214.432 210.699v47.206c0 4.143 3.358 7.5 7.5 7.5s7.5-3.357 7.5-7.5v-47.206c0-4.143-3.358-7.5-7.5-7.5s-7.5 3.357-7.5 7.5z"/><path d="m282.964 210.699v47.206c0 4.143 3.357 7.5 7.5 7.5s7.5-3.357 7.5-7.5v-47.206c0-4.143-3.357-7.5-7.5-7.5s-7.5 3.357-7.5 7.5z"/><path d="m195.81 77.357c6.297 0 9.756-8.351 5.303-12.804-5.431-5.431-8.422-12.644-8.422-20.311s2.991-14.88 8.422-20.311c6.857-6.858-3.749-17.463-10.606-10.607-8.264 8.265-12.815 19.245-12.815 30.918 0 11.674 4.551 22.654 12.815 30.918 1.465 1.465 3.383 2.197 5.303 2.197z"/><path d="m157.206 88.466c6.298 0 9.755-8.351 5.303-12.804-17.324-17.324-17.324-45.513 0-62.837 6.857-6.858-3.749-17.463-10.606-10.607-23.173 23.173-23.173 60.879 0 84.052 1.464 1.463 3.383 2.196 5.303 2.196z"/><path d="m310.908 75.161c3.536 2.928 7.072 2.928 10.607 0 17.047-17.048 17.047-44.787 0-61.835-6.857-6.857-17.465 3.748-10.607 10.605 11.199 11.2 11.199 29.424 0 40.622-2.929 2.93-2.929 7.678 0 10.608z"/><path d="m349.512 86.269c3.536 2.928 7.072 2.928 10.607 0 23.173-23.173 23.173-60.879 0-84.052-6.859-6.854-17.464 3.749-10.607 10.607 17.325 17.324 17.325 45.513 0 62.837-2.929 2.931-2.929 7.679 0 10.608z"/><path d="m504.511 457.999h-42.291v-208.898c0-15.909-12.943-28.853-28.853-28.853h-36.331v-17.978c0-14.664-12.881-26.663-27.47-25.702-4.097-9.833-9.462-19.088-15.999-27.585-5.911-7.686-17.801 1.46-11.889 9.146 5.639 7.33 10.284 15.302 13.854 23.763-6.092 4.715-10.021 12.096-10.021 20.378v42.919c0 8.282 3.929 15.663 10.02 20.378-16.721 39.616-55.985 65.877-99.336 65.877-43.388 0-82.761-26.373-99.428-66.098 5.931-4.723 9.74-12.004 9.74-20.158v-42.918c0-8.152-3.807-15.432-9.738-20.155 8.628-20.539 23.615-38.14 42.659-49.961 7.166-4.449 14.807-8.008 22.744-10.64v23.501c0 18.755 15.263 34.013 34.024 34.013s34.024-15.258 34.024-34.013v-23.502c6.966 2.317 13.702 5.338 19.991 8.988 8.384 4.871 15.917-8.106 7.529-12.973-16.427-9.535-35.041-15.135-54.001-16.284v-30.276c11.677-3.279 20.263-14.019 20.263-26.726 0-15.304-12.454-27.754-27.763-27.754s-27.763 12.45-27.763 27.754c0 12.707 8.586 23.446 20.263 26.726v30.279c-46.253 2.826-88.066 32.547-105.92 75.348-14.717-1.179-27.836 10.864-27.836 25.675v17.979h-36.329c-15.909 0-28.852 12.943-28.852 28.853v208.897h-42.291c-4.142 0-7.5 3.357-7.5 7.5v17.67c0 15.909 12.943 28.853 28.853 28.853h100.14c9.697 0 9.697-15 0-15h-100.141c-7.638 0-13.853-6.214-13.853-13.853v-10.17h482v10.17c0 7.639-6.214 13.853-13.853 13.853h-314.252c-9.697 0-9.697 15 0 15h314.253c15.909 0 28.853-12.943 28.853-28.853v-17.67c0-4.143-3.358-7.5-7.5-7.5zm-229.289-340.309v27.325c0 10.483-8.534 19.013-19.024 19.013s-19.023-8.529-19.023-19.013v-27.306c12.497-2.234 25.542-2.259 38.047-.019zm-31.744-73.447c0-7.032 5.725-12.754 12.763-12.754 7.037 0 12.763 5.722 12.763 12.754 0 4.283-2.124 8.08-5.374 10.394-3.744 2.509-11.244 2.509-14.778 0-3.25-2.314-5.374-6.111-5.374-10.394zm138.558 158.027v42.919c0 14.014-21.523 14.014-21.523 0v-42.919c0-13.458 21.523-14.075 21.523 0zm-33.018 222.166c2.919 0 5.774-.279 8.539-.812v34.375h-18.229v-34.613c3.123.687 6.365 1.05 9.69 1.05zm0-15c-16.319 0-30.021-13.647-30.021-30.021 0-16.554 13.468-30.021 30.021-30.021s30.021 13.468 30.021 30.021-13.467 30.021-30.021 30.021zm-24.689 7.611v40.952h-134.762v-40.952c12.238-8.056 20.332-21.917 20.332-37.632 0-4.966-.809-9.747-2.301-14.218h15.409c3.426 15.158 17.006 26.513 33.19 26.513s29.764-11.354 33.19-26.513h16.91c-1.492 4.471-2.301 9.252-2.301 14.218.001 15.716 8.095 29.576 20.333 37.632zm-129.43-37.632c0 16.554-13.468 30.021-30.021 30.021s-30.021-13.468-30.021-30.021 13.468-30.021 30.021-30.021 30.021 13.467 30.021 30.021zm-30.021 45.021c3.325 0 6.568-.363 9.689-1.05v34.613h-18.229v-34.375c2.766.533 5.621.812 8.54.812zm110.344-79.483v12.744c0 10.483-8.534 19.013-19.024 19.013s-19.023-8.529-19.023-19.013v-12.747c6.232.986 12.589 1.495 19.023 1.495 6.435 0 12.792-.508 19.024-1.492zm-145.237-142.683c0-13.458 21.524-14.075 21.524 0v42.919c0 14.015-21.524 14.014-21.524 0zm-65.183 46.831c0-7.639 6.214-13.853 13.852-13.853h36.331v9.94c0 3.814.834 7.437 2.328 10.696h-24.545c-4.142 0-7.5 3.357-7.5 7.5v194.613h-20.466zm35.466 21.784c14.1 0 28.483.88 42.559 0 14.456 34.681 44.087 60.469 79.347 70.712v8.599h-23.07c-8.264-9.666-20.541-15.804-34.226-15.804-24.825 0-45.021 20.196-45.021 45.021 0 16.203 8.604 30.433 21.482 38.364v40.22h-41.07v-187.112zm272.289 187.114v-40.22c12.879-7.931 21.482-22.161 21.482-38.364 0-24.825-20.196-45.021-45.021-45.021-13.685 0-25.962 6.137-34.226 15.804h-24.571v-8.592c35.274-10.235 64.882-36.016 79.343-70.714 13.933.917 28.229-.006 42.188-.006v187.113zm54.196 0v-194.614c0-4.143-3.357-7.5-7.5-7.5h-24.544c1.494-3.26 2.327-6.882 2.327-10.696v-9.94h36.331c7.639 0 13.853 6.214 13.853 13.853v208.897z"/></g></g></svg>